<?xml version="1.0" encoding="UTF-8"?>
<svg version="1.1" xmlns="http://www.w3.org/2000/svg" width="1677" height="1000">
<path d="M0 0 C11.07455319 2.5081838 22.20247884 4.62565183 33.36987305 6.66870117 C41.8871723 8.23467643 50.35154082 9.96826524 58.8125 11.8125 C77.97221988 15.92413406 97.14560204 19.92764085 116.39599609 23.59301758 C126.44107314 25.51746884 136.44381686 27.60976739 146.44311523 29.75650024 C157.86397017 32.20830035 169.30348015 34.54105224 180.76977539 36.77148438 C186.13608589 37.82608696 191.45430335 38.94422124 196.75 40.3125 C203.60693394 42.06782087 210.53701393 43.3074678 217.5 44.5625 C228.93676475 46.65431148 240.32207924 48.92569926 251.6875 51.375 C261.27307347 53.43937303 270.86245487 55.43922139 280.5 57.25 C292.13804295 59.43848418 303.71657378 61.87936032 315.29910278 64.3409729 C325.32815706 66.47066429 335.36133408 68.53987704 345.4375 70.4375 C358.94913696 72.98543911 372.37728436 75.89196007 385.8125 78.8125 C405.60884564 83.12256911 405.60884564 83.12256911 425.49609375 86.98046875 C431.3145062 88.07168646 437.09068551 89.36798816 442.875 90.625 C452.47879108 92.70717291 462.0956256 94.66726312 471.75 96.5 C486.3259446 99.27351013 500.85024486 102.28336952 515.375 105.3125 C530.83524666 108.53650264 546.29663615 111.7420858 561.7878418 114.81420898 C576.79086179 117.79224716 591.76505427 120.91204106 606.734375 124.0546875 C619.345858 126.69958676 631.97355798 129.25368861 644.61114502 131.77023315 C654.61747949 133.76336482 664.6132143 135.79792377 674.59765625 137.8984375 C684.87710109 140.05222594 695.17826622 142.09702477 705.48046875 144.13867188 C716.90495762 146.4070358 728.30716695 148.77807041 739.70776367 151.16333008 C744.74207151 152.21595448 749.77732248 153.26404507 754.8125 154.3125 C756.81250474 154.72914391 758.81250474 155.1458106 760.8125 155.5625 C761.8025 155.76875 762.7925 155.975 763.8125 156.1875 C766.8125 156.8125 769.8125 157.4375 772.8125 158.0625 C773.80403076 158.2689917 774.79556152 158.4754834 775.81713867 158.68823242 C777.80180133 159.10185883 779.78634083 159.5160767 781.77075195 159.9309082 C787.00451678 161.02416439 792.24051165 162.10475596 797.48046875 163.16796875 C798.57166016 163.39097656 799.66285156 163.61398438 800.78710938 163.84375 C802.87748404 164.27072014 804.96859829 164.69409053 807.06054688 165.11328125 C808.00349609 165.30664062 808.94644531 165.5 809.91796875 165.69921875 C810.74449951 165.86639404 811.57103027 166.03356934 812.42260742 166.20581055 C814.99935248 166.85993369 817.36728751 167.7755906 819.8125 168.8125 C819.21146962 174.12953428 818.36730208 179.30038986 817.17578125 184.51953125 C817.01598785 185.23371719 816.85619446 185.94790314 816.69155884 186.68373108 C816.1728833 188.99829215 815.64899755 191.31163857 815.125 193.625 C814.7601329 195.2481276 814.3956351 196.87133825 814.03149414 198.49462891 C813.30083439 201.75050655 812.56846063 205.00599154 811.83496094 208.26123047 C810.69577469 213.32338537 809.57826948 218.39023309 808.4621582 223.45751953 C806.19509935 233.73972338 803.84593726 244.00001392 801.4375 254.25 C798.88173088 265.12963016 796.41131265 276.02502734 794 286.9375 C790.33483172 303.52301471 786.58099011 320.08756231 782.80833435 336.64892578 C782.59959183 337.56528809 782.3908493 338.48165039 782.17578125 339.42578125 C781.96957657 340.33086426 781.76337189 341.23594727 781.55091858 342.16845703 C779.83287086 349.71344375 778.13404311 357.26264889 776.4375 364.8125 C774.3352436 374.16145532 772.19486862 383.50099906 770.03125 392.8359375 C769.78164017 393.91317581 769.53203033 394.99041412 769.27485657 396.10029602 C769.02084579 397.19649765 768.76683502 398.29269928 768.50512695 399.42211914 C768.24720367 400.53523468 767.9892804 401.64835022 767.72354126 402.79519653 C767.20099803 405.0503265 766.67835456 407.30543325 766.15560913 409.56051636 C762.19735794 426.64953595 758.35474555 443.76029544 754.66650391 460.90966797 C751.92928155 473.58727822 751.92928155 473.58727822 750.25390625 479.49609375 C748.74997656 484.81038092 747.70965276 490.18132249 746.65625 495.60058594 C745.0500607 503.74937785 743.14812819 511.83807387 741.3125 519.9375 C740.91780856 521.68616177 740.52327664 523.43485955 740.12890625 525.18359375 C734.72971914 549.10464135 734.72971914 549.10464135 731.82324219 561.0090332 C728.91773367 572.93482497 726.20963543 584.89836347 723.56390381 596.88366699 C720.67378738 609.97515855 717.72751982 623.05311272 714.75 636.125 C714.32022781 638.01236904 713.89045891 639.89973882 713.46069336 641.78710938 C712.83171113 644.54920832 712.20270361 647.31130147 711.57356262 650.07336426 C709.74835179 658.08854603 707.93416732 666.10618355 706.125 674.125 C705.70371826 675.99115967 705.70371826 675.99115967 705.27392578 677.89501953 C703.92926824 683.85374421 702.58752157 689.813107 701.25 695.7734375 C697.67435512 711.68717716 694.03633735 727.58621111 690.37362671 743.48013306 C689.83782575 745.80522981 689.30235798 748.13040337 688.76724243 750.45565796 C688.00749746 753.75587544 687.24617118 757.05572422 686.484375 760.35546875 C686.14719704 761.82113281 686.14719704 761.82113281 685.8032074 763.31640625 C685.36907428 765.1935693 684.92969785 767.06952872 684.48466492 768.94413757 C684.0045996 770.99274393 683.54639446 773.04652317 683.1028595 775.10334778 C682.85952377 776.18105942 682.61618805 777.25877106 682.36547852 778.36914062 C682.0452346 779.84030334 682.0452346 779.84030334 681.71852112 781.34118652 C680.69050046 784.14527272 679.87485455 784.94917581 677.29296875 786.36328125 C675.14599609 787.14697266 675.14599609 787.14697266 672.8125 787.8125 C672.01021973 788.07466309 671.20793945 788.33682617 670.38134766 788.60693359 C667.64399217 789.46724532 664.89158413 790.23911429 662.125 791 C659.99412017 791.60310124 657.86394174 792.20868473 655.734375 792.81640625 C654.61353516 793.13625488 653.49269531 793.45610352 652.33789062 793.78564453 C646.15769511 795.58577627 640.01789537 797.51462811 633.875 799.4375 C618.82192208 804.14018637 618.82192208 804.14018637 611.3125 806.3125 C603.8036158 808.48789048 596.33966404 810.80285432 588.875 813.125 C587.62750977 813.51284668 586.38001953 813.90069336 585.09472656 814.30029297 C580.18408346 815.82783793 575.2737011 817.356198 570.36474609 818.88916016 C558.5568583 822.57402651 546.73866729 826.1531542 534.8125 829.4375 C527.14075729 831.55083688 519.57152433 833.81093412 512.04882812 836.40283203 C504.698674 838.9103578 497.25662298 841.1044626 489.8125 843.3125 C481.58289001 845.75408996 473.37259545 848.21871128 465.25 851 C458.37592661 853.34776778 451.44488511 855.3925695 444.45288086 857.35888672 C425.74743638 862.63034471 407.17339668 868.36564613 388.62304688 874.15551758 C377.53912331 877.60632623 366.42704802 880.961835 355.3125 884.3125 C339.53548633 889.06958914 323.78347813 893.8971478 308.05224609 898.80371094 C284.02614887 906.28493428 259.94382823 913.58775693 235.8359375 920.80078125 C234.99167206 921.05340225 234.14740662 921.30602325 233.27755737 921.56629944 C232.00635544 921.94666603 232.00635544 921.94666603 230.70947266 922.3347168 C211.20663486 928.17067941 191.73394944 934.09042648 172.32421875 940.23046875 C164.7856507 942.61210513 157.21966497 944.86677816 149.625 947.0625 C139.38787198 950.02345756 129.20825993 953.14968076 119.03686523 956.32836914 C110.1050919 959.11471398 101.15318997 961.82551744 92.1875 964.5 C83.24272784 967.16961248 74.31746965 969.88396092 65.42480469 972.72216797 C60.11220697 974.41402601 54.78132517 976.03471034 49.4375 977.625 C41.1056564 980.10537747 32.80093235 982.66818622 24.5 985.25 C23.26660889 985.63124023 22.03321777 986.01248047 20.76245117 986.40527344 C14.9169394 988.21358341 9.08124392 990.04289104 3.265625 991.9453125 C2.24637939 992.27217041 1.22713379 992.59902832 0.17700195 992.93579102 C-1.69620145 993.53685979 -3.56536838 994.15075249 -5.42895508 994.78100586 C-16.17503393 998.18914407 -25.32000448 997.37303317 -35.75 993.4375 C-46.08546152 989.76047688 -56.50462877 986.64219065 -67.0625 983.6875 C-85.62780254 978.46988845 -85.62780254 978.46988845 -93.5 975.75 C-100.55293812 973.31722543 -107.66195552 971.12893446 -114.8125 969 C-117.38679773 968.23333663 -119.96105452 967.46653963 -122.53515625 966.69921875 C-123.24964935 966.48623642 -123.96414246 966.27325409 -124.70028687 966.05381775 C-136.56194559 962.51244707 -148.40471609 958.90816447 -160.25 955.3125 C-161.48051086 954.93912506 -162.71102173 954.56575012 -163.9788208 954.18106079 C-178.68075139 949.71897318 -193.37144173 945.22598595 -208.03540039 940.640625 C-216.03429211 938.14752768 -224.06732084 935.78912195 -232.11743164 933.4675293 C-241.04125242 930.88250993 -249.90931379 928.12885601 -258.77734375 925.359375 C-268.0663041 922.46145355 -277.37225353 919.62454478 -286.6875 916.8125 C-297.17926455 913.64383909 -307.65971568 910.44280279 -318.125 907.1875 C-319.30989014 906.81898926 -320.49478027 906.45047852 -321.71557617 906.07080078 C-324.05944247 905.34158357 -326.40327438 904.61225585 -328.74707031 903.8828125 C-342.46962174 899.6137474 -356.19279881 895.36321127 -370 891.375 C-386.74512023 886.5349511 -403.38060971 881.32831354 -419.97509766 875.99633789 C-428.63055509 873.21584036 -437.31109765 870.59951103 -446.06201172 868.13623047 C-453.74385244 865.9641432 -461.36920891 863.62755322 -468.99389648 861.26367188 C-478.8761875 858.20441142 -488.7776574 855.21093138 -498.68222046 852.22470093 C-519.47445974 845.95480481 -540.25555644 839.65263269 -560.93237305 833.00976562 C-569.49456651 830.26015206 -578.07892021 827.65888643 -586.73461914 825.21972656 C-593.91508363 823.19108458 -601.07161804 821.08586846 -608.21948242 818.94549561 C-610.0306852 818.40323704 -611.84247533 817.86294143 -613.65429688 817.32275391 C-621.02463437 815.11023762 -628.36220699 812.80941274 -635.69140625 810.46484375 C-647.15575516 806.79920815 -658.6661723 803.29415586 -670.1875 799.8125 C-702.29941336 790.10852888 -702.29941336 790.10852888 -718.1875 784.8125 C-719.109375 782.26953125 -719.109375 782.26953125 -719.9375 778.625 C-720.09814941 777.93575439 -720.25879883 777.24650879 -720.42431641 776.53637695 C-720.80096499 774.91514299 -721.17170967 773.29253151 -721.53808594 771.66894531 C-722.27007466 768.44929568 -723.02830606 765.23641003 -723.7890625 762.0234375 C-726.93766103 748.6903744 -729.97329145 735.33611976 -732.91088867 721.95483398 C-735.04745534 712.29158019 -737.36162641 702.67449666 -739.74023438 693.06811523 C-741.16312474 687.27366915 -742.47803556 681.48074068 -743.625 675.625 C-745.20575195 667.56072352 -747.04530556 659.56581377 -748.91543579 651.56436157 C-749.92808838 647.23033536 -750.9328193 642.89447376 -751.9375 638.55859375 C-752.13591995 637.70271164 -752.3343399 636.84682953 -752.53877258 635.9650116 C-754.06717414 629.36060114 -755.5476324 622.74655276 -757 616.125 C-760.17069975 601.69837377 -763.52891293 587.31513328 -766.86141968 572.92523193 C-770.0740334 559.04680952 -773.25049953 545.16244115 -776.3125 531.25 C-779.19744392 518.144225 -782.19811191 505.06789469 -785.25 492 C-792.65854828 460.27187463 -799.74161593 428.47199664 -806.76841736 396.65742493 C-807.4683457 393.48954839 -808.16954682 390.32195418 -808.87088013 387.15438843 C-809.19758772 385.67717331 -809.52369559 384.19982537 -809.84909058 382.72232056 C-811.67022528 374.45340742 -813.56062066 366.20541857 -815.5390625 357.97265625 C-818.3379877 346.30950149 -820.94429767 334.60486556 -823.54925537 322.89712524 C-827.80314707 303.78668421 -832.10325113 284.68862911 -836.5625 265.625 C-836.8679776 264.31902359 -836.8679776 264.31902359 -837.17962646 262.98666382 C-837.38057922 262.12763458 -837.58153198 261.26860535 -837.78857422 260.38354492 C-838.18332165 258.69581327 -838.5780167 257.00806938 -838.97265625 255.3203125 C-839.16176575 254.51159195 -839.35087524 253.7028714 -839.54571533 252.86964417 C-842.24574725 241.3034681 -844.84205391 229.71391877 -847.44238281 218.125 C-848.36922023 214.00464282 -849.30550254 209.88648154 -850.24414062 205.76879883 C-850.84978501 203.11066688 -851.45249661 200.45188486 -852.0546875 197.79296875 C-852.81967121 194.41792403 -853.59756747 191.04616602 -854.3828125 187.67578125 C-854.75533739 186.05471715 -855.12773925 184.43362478 -855.5 182.8125 C-855.75753052 181.72618286 -855.75753052 181.72618286 -856.02026367 180.61791992 C-856.93363652 176.60660744 -857.36097498 172.92449963 -857.1875 168.8125 C-850.92039666 166.24353766 -844.79809078 164.77279063 -838.15234375 163.5234375 C-835.91247396 163.08885319 -833.6727338 162.65360041 -831.43310547 162.21777344 C-830.25335144 161.99005249 -829.07359741 161.76233154 -827.85809326 161.52770996 C-821.54505587 160.29762346 -815.24378704 159.00993835 -808.94140625 157.7265625 C-807.6204219 157.45822527 -806.29941753 157.18998659 -804.97839355 156.92184448 C-801.59671334 156.23539344 -798.21515983 155.54832096 -794.83365631 154.86100006 C-792.71551936 154.43049186 -790.59735571 154.00011517 -788.47918701 153.56976318 C-768.99430723 149.61070101 -749.51298606 145.63527154 -730.04199219 141.60839844 C-725.72909964 140.71784677 -721.4154113 139.83121783 -717.1015625 138.9453125 C-715.55452245 138.62745256 -714.00748467 138.30958154 -712.46044922 137.99169922 C-710.2468225 137.53684926 -708.03317045 137.08212591 -705.81939697 136.62799072 C-698.84629183 135.1973173 -691.87692659 133.7521965 -684.91796875 132.25390625 C-678.87144401 130.95279856 -672.81582434 129.70764072 -666.75 128.5 C-665.17279175 128.18470337 -665.17279175 128.18470337 -663.5637207 127.86303711 C-656.31308707 126.41903485 -649.05506349 125.01642343 -641.79394531 123.6262207 C-625.875705 120.57486103 -610.02395039 117.26492216 -594.1875 113.8125 C-579.25548113 110.5617247 -564.32119969 107.40569043 -549.30371094 104.57275391 C-542.19962628 103.22497372 -535.14446742 101.72934325 -528.09594727 100.1184082 C-524.24273574 99.24493028 -520.40433016 98.47824415 -516.5 97.875 C-511.00757728 97.01286057 -505.6117408 95.83248975 -500.1875 94.625 C-489.9908184 92.36135036 -479.75646007 90.34422104 -469.5 88.375 C-457.86531461 86.13714464 -446.26094099 83.80713677 -434.68212891 81.29321289 C-408.2411159 75.55903978 -381.7554342 70.0008811 -355.1784668 64.93188477 C-345.66544995 63.11347536 -336.17322869 61.2049469 -326.6875 59.25 C-325.96459778 59.10102264 -325.24169556 58.95204529 -324.49688721 58.79855347 C-315.71432122 56.9854001 -306.94476541 55.11953271 -298.1875 53.1875 C-290.72898982 51.54315564 -283.25566547 50.03782404 -275.75 48.625 C-262.90420618 46.20120841 -250.1088186 43.54581433 -237.3125 40.875 C-236.25919495 40.65522491 -235.20588989 40.43544983 -234.1206665 40.20901489 C-222.11299198 37.70135429 -210.1131093 35.16213878 -198.125 32.5625 C-187.41025261 30.24024316 -176.66230543 28.11649221 -165.89038086 26.07910156 C-156.06101654 24.2117177 -146.2706218 22.17648643 -136.47802734 20.1262207 C-126.45090898 18.0281536 -116.41272283 15.98410863 -106.375 13.9375 C-105.3228833 13.72284088 -104.2707666 13.50818176 -103.18676758 13.28701782 C-88.11577275 10.21281997 -73.04353987 7.1439959 -57.95385742 4.16259766 C-51.58321406 2.90259797 -45.22155319 1.61537982 -38.875 0.23828125 C-37.73804688 -0.00365967 -36.60109375 -0.24560059 -35.4296875 -0.49487305 C-33.36953635 -0.93498215 -31.31185123 -1.38692901 -29.2578125 -1.85473633 C-19.1011238 -4.0009842 -9.9726768 -2.34189518 0 0 Z " fill="#E44D26" transform="translate(857.1875,3.1875)"/>
<path d="M0 0 C-1.485 0.495 -1.485 0.495 -3 1 C-3 67.33 -3 133.66 -3 202 C-11.91 203.98 -20.82 205.96 -30 208 C-40.57154809 211.30990965 -40.57154809 211.30990965 -51 215 C-51.82443604 215.30881104 -52.64887207 215.61762207 -53.49829102 215.93579102 C-59.18052704 218.13235444 -64.5094902 220.69456036 -69.8125 223.6875 C-70.58730713 224.12247803 -71.36211426 224.55745605 -72.16040039 225.00561523 C-103.69382729 242.96653914 -128.93222963 269.61505146 -139 305 C-146.95732101 334.82424478 -144.45334197 366.77912022 -132 395 C-131.62359375 395.89074219 -131.2471875 396.78148437 -130.859375 397.69921875 C-125.49223557 409.43511167 -116.84724585 419.74617116 -108 429 C-107.401875 429.66128906 -106.80375 430.32257813 -106.1875 431.00390625 C-71.95185444 467.5268471 -14.98475416 482.97971108 31.625 496.625 C59.35160243 504.76657383 91.74608689 515.14709375 112 537 C112.54269531 537.54914062 113.08539062 538.09828125 113.64453125 538.6640625 C118.80404376 544.12707574 121.9558606 550.16717936 125 557 C125.36222656 557.80953125 125.72445312 558.6190625 126.09765625 559.453125 C131.96204698 576.00543129 129.53587146 594.62775029 122.375 610.3125 C112.88564632 627.86065152 95.60040048 637.57875502 77.125 643.3125 C54.03956276 649.26261823 26.48453328 649.16537424 3 645 C2.13713379 644.84934082 1.27426758 644.69868164 0.38525391 644.54345703 C-19.70720053 640.90014662 -39.57236002 634.88710051 -57 624 C-57.69101807 623.6390625 -58.38203613 623.278125 -59.09399414 622.90625 C-62.64075758 620.78181313 -64.59829429 619.11514579 -66.02246094 615.16162109 C-66.75962704 611.53057279 -67.2561241 607.92997533 -67.6875 604.25 C-67.872588 602.88950866 -68.06113462 601.5294839 -68.25292969 600.16992188 C-68.65446203 597.29041502 -69.03685755 594.4092544 -69.40576172 591.52539062 C-70.00501994 586.88810244 -70.68369334 582.26438229 -71.37890625 577.640625 C-71.551623 576.49016693 -71.551623 576.49016693 -71.72782898 575.31646729 C-71.95685482 573.79132687 -72.18597453 572.26620055 -72.41519165 570.74108887 C-72.94830751 567.17259958 -73.46728224 563.60209135 -73.984375 560.03125 C-74.15678711 558.84080078 -74.32919922 557.65035156 -74.50683594 556.42382812 C-75.00725858 552.94960677 -75.50360022 549.47479843 -76 546 C-100.09 545.67 -124.18 545.34 -149 545 C-149.32421078 566.90780692 -149.32421078 566.90780692 -149.48147678 588.81504536 C-149.50914726 596.6540214 -149.56183943 604.49015156 -149.7097168 612.32788086 C-149.8267633 618.53584973 -149.88315704 624.74100007 -149.86853737 630.95010489 C-149.86287252 634.23586898 -149.89535672 637.51385883 -149.98260689 640.79865456 C-150.86324304 654.11079578 -150.86324304 654.11079578 -146.37107468 666.14248276 C-142.44410117 669.7038228 -138.07014007 671.98061982 -133.21322441 674.02727318 C-130.25959298 675.3254138 -127.54214058 676.93560944 -124.77785587 678.59182453 C-88.84762074 699.98327266 -48.72030256 711.80207429 -7.33203125 716.546875 C-4 717 -4 717 -3 718 C-2.90317447 719.50649771 -2.87628272 721.0175404 -2.87695217 722.52714634 C-2.87496112 723.51145494 -2.87297007 724.49576354 -2.87091869 725.50989968 C-2.87383153 726.60423425 -2.87674437 727.69856883 -2.87974548 728.82606506 C-2.87889106 729.97848125 -2.87803663 731.13089744 -2.87715632 732.31823534 C-2.87578817 735.53123464 -2.8789355 738.74419414 -2.88393438 741.95718873 C-2.88823569 745.41664452 -2.88679268 748.87609831 -2.8860321 752.33555603 C-2.88550667 758.33403531 -2.88865554 764.33250375 -2.89426994 770.3309803 C-2.90238226 779.00386827 -2.90499989 787.67675098 -2.90625793 796.34964233 C-2.90844888 810.41937716 -2.91511011 824.4891062 -2.92456055 838.55883789 C-2.93373357 852.22973603 -2.94081494 865.90063261 -2.94506836 879.5715332 C-2.94533108 880.41360323 -2.94559381 881.25567326 -2.94586449 882.12326057 C-2.94716949 886.34749801 -2.94843321 890.57173548 -2.94967639 894.79597294 C-2.96005033 929.86398609 -2.97766979 964.93199251 -3 1000 C-7.23456258 1000.04551674 -10.7094319 1000.05499077 -14.703125 998.6015625 C-15.58339355 998.29202637 -16.46366211 997.98249023 -17.37060547 997.66357422 C-18.32080566 997.32084473 -19.27100586 996.97811523 -20.25 996.625 C-30.69744118 992.99046066 -41.22806998 989.86112928 -51.875 986.875 C-70.48840156 981.64076997 -70.48840156 981.64076997 -78.3125 978.9375 C-85.36543812 976.50472543 -92.47445552 974.31643446 -99.625 972.1875 C-102.19929773 971.42083663 -104.77355452 970.65403963 -107.34765625 969.88671875 C-108.06214935 969.67373642 -108.77664246 969.46075409 -109.51278687 969.24131775 C-121.37444559 965.69994707 -133.21721609 962.09566447 -145.0625 958.5 C-146.29301086 958.12662506 -147.52352173 957.75325012 -148.7913208 957.36856079 C-163.49325139 952.90647318 -178.18394173 948.41348595 -192.84790039 943.828125 C-200.84679211 941.33502768 -208.87982084 938.97662195 -216.92993164 936.6550293 C-225.85375242 934.07000993 -234.72181379 931.31635601 -243.58984375 928.546875 C-252.8788041 925.64895355 -262.18475353 922.81204478 -271.5 920 C-281.99176455 916.83133909 -292.47221568 913.63030279 -302.9375 910.375 C-304.12239014 910.00648926 -305.30728027 909.63797852 -306.52807617 909.25830078 C-308.87194247 908.52908357 -311.21577438 907.79975585 -313.55957031 907.0703125 C-327.28212174 902.8012474 -341.00529881 898.55071127 -354.8125 894.5625 C-371.55762023 889.7224511 -388.19310971 884.51581354 -404.78759766 879.18383789 C-413.44305509 876.40334036 -422.12359765 873.78701103 -430.87451172 871.32373047 C-438.55635244 869.1516432 -446.18170891 866.81505322 -453.80639648 864.45117188 C-463.6886875 861.39191142 -473.5901574 858.39843138 -483.49472046 855.41220093 C-504.28695974 849.14230481 -525.06805644 842.84013269 -545.74487305 836.19726562 C-554.30706651 833.44765206 -562.89142021 830.84638643 -571.54711914 828.40722656 C-578.72758363 826.37858458 -585.88411804 824.27336846 -593.03198242 822.13299561 C-594.8431852 821.59073704 -596.65497533 821.05044143 -598.46679688 820.51025391 C-605.83713437 818.29773762 -613.17470699 815.99691274 -620.50390625 813.65234375 C-631.96825516 809.98670815 -643.4786723 806.48165586 -655 803 C-687.11191336 793.29602888 -687.11191336 793.29602888 -703 788 C-703.921875 785.45703125 -703.921875 785.45703125 -704.75 781.8125 C-704.91064941 781.12325439 -705.07129883 780.43400879 -705.23681641 779.72387695 C-705.61346499 778.10264299 -705.98420967 776.48003151 -706.35058594 774.85644531 C-707.08257466 771.63679568 -707.84080606 768.42391003 -708.6015625 765.2109375 C-711.75016103 751.8778744 -714.78579145 738.52361976 -717.72338867 725.14233398 C-719.85995534 715.47908019 -722.17412641 705.86199666 -724.55273438 696.25561523 C-725.97562474 690.46116915 -727.29053556 684.66824068 -728.4375 678.8125 C-730.01825195 670.74822352 -731.85780556 662.75331377 -733.72793579 654.75186157 C-734.74058838 650.41783536 -735.7453193 646.08197376 -736.75 641.74609375 C-736.94841995 640.89021164 -737.1468399 640.03432953 -737.35127258 639.1525116 C-738.87967414 632.54810114 -740.3601324 625.93405276 -741.8125 619.3125 C-744.98319975 604.88587377 -748.34141293 590.50263328 -751.67391968 576.11273193 C-754.8865334 562.23430952 -758.06299953 548.34994115 -761.125 534.4375 C-764.00994392 521.331725 -767.01061191 508.25539469 -770.0625 495.1875 C-777.47104828 463.45937463 -784.55411593 431.65949664 -791.58091736 399.84492493 C-792.2808457 396.67704839 -792.98204682 393.50945418 -793.68338013 390.34188843 C-794.01008772 388.86467331 -794.33619559 387.38732537 -794.66159058 385.90982056 C-796.48272528 377.64090742 -798.37312066 369.39291857 -800.3515625 361.16015625 C-803.1504877 349.49700149 -805.75679767 337.79236556 -808.36175537 326.08462524 C-812.61564707 306.97418421 -816.91575113 287.87612911 -821.375 268.8125 C-821.6804776 267.50652359 -821.6804776 267.50652359 -821.99212646 266.17416382 C-822.19307922 265.31513458 -822.39403198 264.45610535 -822.60107422 263.57104492 C-822.99582165 261.88331327 -823.3905167 260.19556938 -823.78515625 258.5078125 C-823.97426575 257.69909195 -824.16337524 256.8903714 -824.35821533 256.05714417 C-827.05824725 244.4909681 -829.65455391 232.90141877 -832.25488281 221.3125 C-833.18172023 217.19214282 -834.11800254 213.07398154 -835.05664062 208.95629883 C-835.66228501 206.29816688 -836.26499661 203.63938486 -836.8671875 200.98046875 C-837.63217121 197.60542403 -838.41006747 194.23366602 -839.1953125 190.86328125 C-839.56783739 189.24221715 -839.94023925 187.62112478 -840.3125 186 C-840.57003052 184.91368286 -840.57003052 184.91368286 -840.83276367 183.80541992 C-841.74613652 179.79410744 -842.17347498 176.11199963 -842 172 C-835.73289666 169.43103766 -829.61059078 167.96029063 -822.96484375 166.7109375 C-820.72497396 166.27635319 -818.4852338 165.84110041 -816.24560547 165.40527344 C-815.06585144 165.17755249 -813.88609741 164.94983154 -812.67059326 164.71520996 C-806.35755587 163.48512346 -800.05628704 162.19743835 -793.75390625 160.9140625 C-792.4329219 160.64572527 -791.11191753 160.37748659 -789.79089355 160.10934448 C-786.40921334 159.42289344 -783.02765983 158.73582096 -779.64615631 158.04850006 C-777.52801936 157.61799186 -775.40985571 157.18761517 -773.29168701 156.75726318 C-753.80680723 152.79820101 -734.32548606 148.82277154 -714.85449219 144.79589844 C-710.54159964 143.90534677 -706.2279113 143.01871783 -701.9140625 142.1328125 C-700.36702245 141.81495256 -698.81998467 141.49708154 -697.27294922 141.17919922 C-695.0593225 140.72434926 -692.84567045 140.26962591 -690.63189697 139.81549072 C-683.65879183 138.3848173 -676.68942659 136.9396965 -669.73046875 135.44140625 C-663.68394401 134.14029856 -657.62832434 132.89514072 -651.5625 131.6875 C-649.98529175 131.37220337 -649.98529175 131.37220337 -648.3762207 131.05053711 C-641.12558707 129.60653485 -633.86756349 128.20392343 -626.60644531 126.8137207 C-610.688205 123.76236103 -594.83645039 120.45242216 -579 117 C-564.06798113 113.7492247 -549.13369969 110.59319043 -534.11621094 107.76025391 C-527.01212628 106.41247372 -519.95696742 104.91684325 -512.90844727 103.3059082 C-509.05523574 102.43243028 -505.21683016 101.66574415 -501.3125 101.0625 C-495.82007728 100.20036057 -490.4242408 99.01998975 -485 97.8125 C-474.8033184 95.54885036 -464.56896007 93.53172104 -454.3125 91.5625 C-442.67781461 89.32464464 -431.07344099 86.99463677 -419.49462891 84.48071289 C-393.0536159 78.74653978 -366.5679342 73.1883811 -339.9909668 68.11938477 C-330.47794995 66.30097536 -320.98572869 64.3924469 -311.5 62.4375 C-310.77709778 62.28852264 -310.05419556 62.13954529 -309.30938721 61.98605347 C-300.52682122 60.1729001 -291.75726541 58.30703271 -283 56.375 C-275.54148982 54.73065564 -268.06816547 53.22532404 -260.5625 51.8125 C-247.71670618 49.38870841 -234.9213186 46.73331433 -222.125 44.0625 C-221.07169495 43.84272491 -220.01838989 43.62294983 -218.9331665 43.39651489 C-206.92549198 40.88885429 -194.9256093 38.34963878 -182.9375 35.75 C-172.22275261 33.42774316 -161.47480543 31.30399221 -150.70288086 29.26660156 C-140.87351654 27.3992177 -131.0831218 25.36398643 -121.29052734 23.3137207 C-111.26340898 21.2156536 -101.22522283 19.17160863 -91.1875 17.125 C-90.1353833 16.91034088 -89.0832666 16.69568176 -87.99926758 16.47451782 C-72.93155772 13.40099004 -57.86045237 10.34504387 -42.77734375 7.34790039 C-36.3514991 6.07100459 -29.92821888 4.78415487 -23.51171875 3.4609375 C-22.35220703 3.2235083 -21.19269531 2.9860791 -19.99804688 2.74145508 C-17.87466396 2.30597367 -15.75217503 1.8660967 -13.63085938 1.4206543 C-9.01178696 0.47763386 -4.74472003 -0.26227096 0 0 Z " fill="#EE6429" transform="translate(842,0)"/>
<path d="M0 0 C29.8344017 -0.04431324 59.66878489 -0.08115472 89.50321074 -0.10213066 C93.04689966 -0.10463127 96.59058852 -0.10721999 100.13427734 -0.10986328 C100.8395911 -0.1103879 101.54490485 -0.11091252 102.27159175 -0.11145304 C113.60573615 -0.12009231 124.93985971 -0.13582539 136.27399185 -0.15430559 C147.95397256 -0.17318704 159.63394256 -0.18415466 171.3139379 -0.18817699 C177.85327675 -0.19075659 184.39256875 -0.19670375 190.9318924 -0.21146011 C238.09610887 -0.31336649 238.09610887 -0.31336649 259.40917969 0.83642578 C260.45089317 0.88963726 260.45089317 0.88963726 261.51365137 0.94392371 C305.26410217 3.27597924 348.79354883 17.65486737 381 48 C381.60199219 48.54914063 382.20398438 49.09828125 382.82421875 49.6640625 C401.72327154 67.54987936 413.6485257 93.56711135 418 119 C418.18433594 120.02351563 418.36867188 121.04703125 418.55859375 122.1015625 C424.940893 162.50811914 416.51482912 203.40141871 392.75 236.6875 C387.68755147 243.6030798 382.59041478 249.7144698 376.046875 255.26171875 C374.74592345 256.36653447 373.46219234 257.49221092 372.203125 258.64453125 C363.49768944 266.58731113 345.41391133 283 333 283 C336.21061466 291.66884076 339.75902245 300.11329342 343.61651611 308.51257324 C345.16815627 311.89327287 346.70565943 315.2803793 348.2421875 318.66796875 C348.5566684 319.36117218 348.87114929 320.05437561 349.19515991 320.76858521 C352.41914984 327.8943115 355.53134108 335.06694106 358.625 342.25 C362.59464184 351.46071086 366.60045053 360.65305518 370.6875 369.8125 C375.95795766 381.62779974 381.1734591 393.46672742 386.375 405.3125 C386.75981537 406.18822662 387.14463074 407.06395325 387.54110718 407.96621704 C388.29474043 409.6814748 389.04690119 411.39738037 389.79750061 413.1139679 C390.52666892 414.76930356 391.26560978 416.4203716 392.01463318 418.06681824 C393.66583229 421.72914864 395.14121324 425.2555549 396.13818359 429.15234375 C397.31959264 433.18544795 398.27932207 435.78235701 401 439 C407.38884564 442.38991291 414.83576298 443.21946669 421.875 444.375 C428.51625 445.57125 435.1575 446.7675 442 448 C442 467.14 442 486.28 442 506 C404.05 506 366.1 506 327 506 C313.18735628 472.61944434 313.18735628 472.61944434 307.90625 459.47265625 C307.30207433 457.97166977 306.6977818 456.47073034 306.09338379 454.96983337 C304.53839547 451.10736716 302.98510075 447.24422226 301.43218994 443.38092041 C300.19092494 440.29380909 298.94836754 437.20721875 297.70576286 434.12064648 C291.77849499 419.39731133 285.86399913 404.66899692 279.9765625 389.9296875 C275.97092391 379.90245738 271.93967664 369.88592983 267.88913727 359.87676048 C266.99855832 357.67590026 266.10842528 355.47486024 265.21844482 353.27375793 C264.62740168 351.81206219 264.03635757 350.35036684 263.4453125 348.88867188 C263.15264118 348.16485164 262.85996986 347.4410314 262.55842972 346.69527721 C261.04972926 342.96471442 259.53967854 339.23470631 258.02734375 335.50561523 C256.52561047 331.80238013 255.02735357 328.09775551 253.5314064 324.39217949 C252.97054468 323.00469275 252.40842992 321.61771176 251.84496689 320.23127937 C251.06505193 318.31183514 250.28960742 316.39064029 249.51513672 314.46899414 C249.0761203 313.38477676 248.63710388 312.30055939 248.18478394 311.18348694 C246.94425664 307.85021889 245.97708013 304.41978045 245 301 C213.32 301 181.64 301 149 301 C149 346.54 149 392.08 149 439 C153.62 439.66 158.24 440.32 163 441 C166.38367804 441.61832595 169.74933993 442.25434021 173.1171875 442.9453125 C173.8894165 443.10056396 174.66164551 443.25581543 175.45727539 443.41577148 C178.26405154 443.98122299 181.06945522 444.55347025 183.875 445.125 C190.18625 446.40375 196.4975 447.6825 203 449 C203 467.81 203 486.62 203 506 C136.01 506 69.02 506 0 506 C0 487.19 0 468.38 0 449 C6.47625 447.72125 12.9525 446.4425 19.625 445.125 C21.63803223 444.72555176 23.65106445 444.32610352 25.72509766 443.91455078 C27.37136318 443.59118567 29.01768158 443.26808959 30.6640625 442.9453125 C31.47770264 442.78281006 32.29134277 442.62030762 33.12963867 442.45288086 C40.40989963 441.03156718 47.62320276 440.05382818 55 439 C55 316.57 55 194.14 55 68 C50.05 67.34 45.1 66.68 40 66 C36.83721393 65.46548121 33.69406113 64.9169348 30.546875 64.30859375 C29.75396057 64.158423 28.96104614 64.00825226 28.144104 63.85353088 C26.50406624 63.54206727 24.86439266 63.22867962 23.22509766 62.91333008 C20.7121598 62.43022534 18.19799417 61.9539438 15.68359375 61.47851562 C14.07544649 61.17226513 12.46737071 60.86563899 10.859375 60.55859375 C10.11258484 60.41691269 9.36579468 60.27523163 8.59637451 60.1292572 C5.65297714 59.56103666 2.84787092 58.94929031 0 58 C0 38.86 0 19.72 0 0 Z " fill="#FEFEFE" transform="translate(192,206)"/>
<path d="M0 0 C1.68265709 -0.01469078 1.68265709 -0.01469078 3.39930725 -0.02967834 C27.20255918 -0.19476825 50.54662395 -0.34327259 73.984375 4.23828125 C75.66321777 4.55974121 75.66321777 4.55974121 77.37597656 4.88769531 C115.7498879 12.46541221 151.57544626 27.90984726 182.984375 51.23828125 C183.974375 51.89828125 184.964375 52.55828125 185.984375 53.23828125 C186.35351849 55.23352242 186.35351849 55.23352242 186.34513855 57.73074341 C186.35132454 59.14844528 186.35132454 59.14844528 186.3576355 60.5947876 C186.34684967 61.63487976 186.33606384 62.67497192 186.32495117 63.74658203 C186.32538925 64.83927399 186.32582733 65.93196594 186.32627869 67.05776978 C186.32418231 70.68322382 186.30081084 74.30822011 186.27734375 77.93359375 C186.27175083 80.44180041 186.2674793 82.95001033 186.26448059 85.45822144 C186.25418171 91.39394556 186.23051791 97.32952188 186.20043212 103.26516998 C186.15776478 111.86940767 186.14201222 120.47370134 186.12300873 129.07801819 C186.09388415 141.13157612 186.03641316 153.18470228 185.984375 165.23828125 C162.554375 165.23828125 139.124375 165.23828125 114.984375 165.23828125 C113.8398298 160.08782783 112.71960518 155.02663121 111.79516602 149.84814453 C111.58477188 148.67728302 111.37437775 147.50642151 111.15760803 146.30007935 C110.82629128 144.44804398 110.82629128 144.44804398 110.48828125 142.55859375 C110.00777927 139.91264592 109.52671038 137.26680703 109.04492188 134.62109375 C108.29035008 130.47443922 107.53923479 126.32724934 106.80053711 122.17773438 C106.31551205 119.45457448 105.82430181 116.73267817 105.32591248 114.01193237 C104.85800509 111.45724199 104.39910102 108.90088292 103.9500885 106.34280396 C103.73654221 105.19085541 103.52299591 104.03890686 103.30297852 102.85205078 C103.12025894 101.8377298 102.93753937 100.82340881 102.74928284 99.77835083 C101.50104861 95.63327394 99.48445487 94.52500186 95.7890625 92.40625 C59.74231153 73.88481119 13.35495291 66.97975418 -25.85546875 79.40625 C-29.00310407 80.54116169 -31.99523165 81.80159902 -35.015625 83.23828125 C-35.95277344 83.67914063 -36.88992188 84.12 -37.85546875 84.57421875 C-52.28055607 91.89803587 -62.54254521 102.63376872 -69.078125 117.42578125 C-73.86749003 132.12532029 -72.93426468 150.5217632 -66.5078125 164.5234375 C-47.44365743 197.26405164 -2.42879118 208.584217 31.41372681 218.97320557 C55.05111234 226.23185577 78.62964692 233.55484328 100.984375 244.23828125 C101.75136719 244.604375 102.51835938 244.97046875 103.30859375 245.34765625 C107.91087011 247.56445952 112.45543032 249.87557837 116.984375 252.23828125 C117.92796875 252.71394531 118.8715625 253.18960938 119.84375 253.6796875 C132.05987932 260.02267772 143.51936003 268.32960184 153.984375 277.23828125 C154.79003906 277.92148437 155.59570312 278.6046875 156.42578125 279.30859375 C184.96291724 304.22834631 198.37352127 336.80791098 200.984375 374.23828125 C202.78352612 405.74178455 192.25633685 437.22426764 171.984375 461.23828125 C171.34459717 462.00567627 171.34459717 462.00567627 170.69189453 462.78857422 C139.59249069 499.69351224 89.41779576 514.93329671 42.96533203 519.02909851 C38.0167748 519.37635369 33.07638655 519.42029041 28.1171875 519.44140625 C26.45968979 519.45192772 26.45968979 519.45192772 24.76870728 519.46266174 C21.21555471 519.48009214 17.66256877 519.48651537 14.109375 519.48828125 C12.89640747 519.48895599 11.68343994 519.48963074 10.43371582 519.49032593 C-7.56699658 519.47439899 -25.21192389 519.12778477 -43.015625 516.23828125 C-44.11567871 516.06135742 -45.21573242 515.88443359 -46.34912109 515.70214844 C-81.13120227 509.91263428 -115.77036144 499.3389528 -146.13935852 481.06558228 C-149.4934831 479.06886537 -152.89326616 477.31766106 -156.41007996 475.62631226 C-170.25948548 468.44280906 -170.25948548 468.44280906 -173.18414688 461.44062042 C-174.97540878 453.32384545 -174.42676 445.08601098 -174.06640625 436.83984375 C-174.02717369 434.19147113 -173.9962831 431.54429656 -173.97636414 428.89584351 C-173.91149297 422.66994231 -173.73981363 416.45193381 -173.52802485 410.22948587 C-173.29196078 403.1373122 -173.17751916 396.04472767 -173.07242072 388.94959378 C-172.85385072 374.37511304 -172.48534121 359.80680728 -172.015625 345.23828125 C-162.51488175 345.21515641 -153.01414812 345.19736545 -143.51338291 345.18646908 C-139.10225496 345.18124056 -134.6911462 345.17414348 -130.2800293 345.1628418 C-126.02661385 345.15201181 -121.77321691 345.14600418 -117.51978874 345.14340401 C-115.89340867 345.14154996 -114.26702966 345.13792973 -112.64065742 345.13255119 C-110.37052307 345.12533927 -108.10046615 345.12429037 -105.83032227 345.12475586 C-104.53570572 345.12253525 -103.24108917 345.12031464 -101.90724182 345.11802673 C-99.015625 345.23828125 -99.015625 345.23828125 -98.015625 346.23828125 C-97.63084108 348.1854403 -97.30393959 350.14406421 -97 352.10546875 C-96.7047644 353.99869873 -96.7047644 353.99869873 -96.40356445 355.93017578 C-96.19080834 357.32452755 -95.9781648 358.7188965 -95.765625 360.11328125 C-95.54469831 361.54023022 -95.3235854 362.96715037 -95.10229492 364.39404297 C-93.89341382 372.23540749 -92.7434949 380.08390034 -91.64453125 387.94140625 C-91.53348053 388.73261871 -91.42242981 389.52383118 -91.30801392 390.33901978 C-90.76882549 394.18699267 -90.23664986 398.03572943 -89.71582031 401.88623047 C-89.52034409 403.29787398 -89.3247138 404.70949616 -89.12890625 406.12109375 C-88.87814331 407.96791748 -88.87814331 407.96791748 -88.62231445 409.85205078 C-87.45702848 416.69321976 -87.45702848 416.69321976 -82.92578125 421.6171875 C-81.65509445 422.3655736 -80.37164811 423.09259719 -79.078125 423.80078125 C-78.39572754 424.18862793 -77.71333008 424.57647461 -77.01025391 424.97607422 C-75.02488891 426.08942844 -73.02576776 427.17044215 -71.015625 428.23828125 C-70.12488281 428.71394531 -69.23414063 429.18960937 -68.31640625 429.6796875 C-53.24875348 437.0315374 -36.49324711 441.48122711 -20.015625 444.23828125 C-19.33628906 444.3554248 -18.65695312 444.47256836 -17.95703125 444.59326172 C14.50057557 449.91586635 52.7634435 448.56912267 80.984375 430.23828125 C94.14177622 420.48031569 101.97817799 406.88921784 104.70703125 390.75 C106.72841422 372.44367253 102.80127046 356.08779125 91.984375 341.23828125 C91.2521875 340.51382812 90.52 339.789375 89.765625 339.04296875 C87.984375 337.23828125 87.984375 337.23828125 87.984375 335.23828125 C87.41460938 334.98304688 86.84484375 334.7278125 86.2578125 334.46484375 C83.72906689 333.1005377 81.79100228 331.4821838 79.609375 329.61328125 C62.76360099 316.04375357 41.5080938 308.77597032 21.22705078 301.99072266 C19.19245676 301.30809488 17.1638338 300.61070842 15.13671875 299.90625 C9.10925253 297.84025233 3.07682504 295.96291075 -3.0625 294.265625 C-41.85306218 283.51006003 -82.63168873 268.67593906 -115.015625 244.23828125 C-115.99402344 243.50222656 -116.97242188 242.76617187 -117.98046875 242.0078125 C-145.14936521 220.60792131 -161.78612256 191.73036935 -166.65380859 157.43457031 C-170.46775815 123.74210904 -162.60814722 91.09339869 -142.203125 63.953125 C-127.9412818 46.25315888 -110.91422273 33.03775115 -91.015625 22.23828125 C-90.06429687 21.71492188 -89.11296875 21.1915625 -88.1328125 20.65234375 C-61.25232781 6.50077939 -30.19198009 0.21833778 0 0 Z " fill="#FEFEFE" transform="translate(865.015625,199.76171875)"/>
<path d="M0 0 C68.97 0 137.94 0 209 0 C209 19.14 209 38.28 209 58 C178.88395415 63.79154728 178.88395415 63.79154728 166.0625 65.8125 C164.71284108 66.03029217 163.36323187 66.24839257 162.01367188 66.46679688 C152.41046627 68 152.41046627 68 149 68 C149 188.78 149 309.56 149 434 C198.83 434 248.66 434 300 434 C300 429.71 300 425.42 300 421 C300.23882963 416.63998992 300.51024672 412.29785054 300.83984375 407.9453125 C300.92625626 406.75952606 301.01266876 405.57373962 301.10169983 404.35202026 C301.28357662 401.86960613 301.46771839 399.38735696 301.65405273 396.90527344 C301.93830094 393.11431807 302.2148239 389.32285666 302.49023438 385.53125 C302.66881957 383.10673755 302.8478407 380.68225717 303.02734375 378.2578125 C303.10967758 377.13166534 303.19201141 376.00551819 303.27684021 374.84524536 C303.35684769 373.78659271 303.43685516 372.72794006 303.51928711 371.63720703 C303.58812607 370.71489288 303.65696503 369.79257874 303.72789001 368.84231567 C304.04314692 365.5493103 304.53216945 362.27481387 305 359 C328.76 359 352.52 359 377 359 C377 407.51 377 456.02 377 506 C252.59 506 128.18 506 0 506 C0 487.19 0 468.38 0 449 C8.518125 447.35 17.03625 445.7 25.8125 444 C28.49995361 443.47792969 31.18740723 442.95585938 33.95629883 442.41796875 C36.08150031 442.00759155 38.20674173 441.59742106 40.33203125 441.1875 C41.43945679 440.97158203 42.54688232 440.75566406 43.68786621 440.53320312 C44.74324585 440.33017578 45.79862549 440.12714844 46.88598633 439.91796875 C47.80309891 439.74031982 48.72021149 439.5626709 49.66511536 439.37963867 C52 439 52 439 55 439 C55 316.57 55 194.14 55 68 C50.05 67.34 45.1 66.68 40 66 C36.83721393 65.46548121 33.69406113 64.9169348 30.546875 64.30859375 C29.75396057 64.158423 28.96104614 64.00825226 28.144104 63.85353088 C26.50406624 63.54206727 24.86439266 63.22867962 23.22509766 62.91333008 C20.7121598 62.43022534 18.19799417 61.9539438 15.68359375 61.47851562 C14.07544649 61.17226513 12.46737071 60.86563899 10.859375 60.55859375 C10.11258484 60.41691269 9.36579468 60.27523163 8.59637451 60.1292572 C5.65297714 59.56103666 2.84787092 58.94929031 0 58 C0 38.86 0 19.72 0 0 Z " fill="#FEFEFE" transform="translate(1109,206)"/>
<path d="M0 0 C14.56125 -0.04125 29.1225 -0.0825 44.125 -0.125 C48.67555176 -0.14320801 53.22610352 -0.16141602 57.91455078 -0.18017578 C63.59155273 -0.18920898 63.59155273 -0.18920898 66.27243042 -0.19088745 C68.09397365 -0.19390308 69.91551362 -0.20081687 71.73703003 -0.21115112 C82.12296352 -0.26698525 92.40693865 -0.03394157 102.75732422 0.87939453 C103.63829332 0.95605787 104.51926243 1.03272121 105.42692757 1.11170769 C126.66398338 3.18236669 145.79263166 10.65622156 160 27 C174.03039515 44.61143824 179.00543673 67.00395636 176.78173828 89.17626953 C174.51447618 107.66103033 168.49287039 123.92966306 154.1875 136.4375 C136.07337729 150.58485913 112.2325861 155.20358254 89.68505859 155.11352539 C88.69263468 155.11364593 87.70021076 155.11376646 86.67771339 155.11389065 C83.50126438 155.113151 80.32487586 155.10556648 77.1484375 155.09765625 C75.17293323 155.09618389 73.19742857 155.09516499 71.22192383 155.09460449 C63.93960989 155.08938571 56.65730434 155.07542446 49.375 155.0625 C24.934375 155.0315625 24.934375 155.0315625 0 155 C0 103.85 0 52.7 0 0 Z " fill="#EF6429" transform="translate(341,279)"/>
<path d="M0 0 C5.36968361 1.19326302 10.47336762 2.35287888 15.703125 3.91796875 C17.52880005 4.46336304 17.52880005 4.46336304 19.39135742 5.01977539 C20.6777226 5.40851766 21.96393369 5.79777013 23.25 6.1875 C23.91029205 6.38697235 24.57058411 6.5864447 25.25088501 6.79196167 C43.55473881 12.32797005 61.55994098 18.09603652 79 26 C79.71027344 26.32081543 80.42054688 26.64163086 81.15234375 26.97216797 C91.26582174 31.60751205 100.1854312 37.22488045 109 44 C109.87398437 44.66515625 110.74796875 45.3303125 111.6484375 46.015625 C119.30008428 52.47249637 123.98864212 60.96805725 128 70 C128.54140625 71.21042969 128.54140625 71.21042969 129.09375 72.4453125 C134.96529432 88.99699348 132.53627161 107.62687383 125.375 123.3125 C115.88564632 140.86065152 98.60040048 150.57875502 80.125 156.3125 C56.42672696 162.42057259 23.47989022 163.82663007 0 156 C0 104.52 0 53.04 0 0 Z " fill="#E54D26" transform="translate(839,487)"/>
<path d="M0 0 C0.66 0.33 1.32 0.66 2 1 C2 39.94 2 78.88 2 119 C-17.5978506 109.2010747 -35.36209073 99.04446263 -42.6640625 77.40625 C-46.51813357 63.82741602 -46.09224535 46.32915267 -39.9609375 33.48046875 C-31.0681166 17.69659738 -17.34489395 5.78163132 0 0 Z " fill="#EE6429" transform="translate(837,279)"/>
</svg>
